<svg width="16" height="16" viewBox="0 0 16 16" fill="none" xmlns="http://www.w3.org/2000/svg">
<path d="M14.0867 5.11725L9.4246 1.49109C9.01547 1.17281 8.5119 1 7.99355 1C7.47519 1 6.97162 1.17281 6.56249 1.49109L1.89954 5.11725C1.61932 5.33517 1.39259 5.61425 1.23669 5.93317C1.08079 6.2521 0.999833 6.60243 1 6.95742V13.2516C1 13.7153 1.1842 14.16 1.51209 14.4879C1.83998 14.8158 2.28469 15 2.74839 15H13.2387C13.7024 15 14.1471 14.8158 14.475 14.4879C14.8029 14.16 14.9871 13.7153 14.9871 13.2516V6.95742C14.9871 6.23796 14.6549 5.55872 14.0867 5.11725Z" stroke="#87A7C3" stroke-width="2" stroke-linecap="round" stroke-linejoin="round"/>
</svg>
