<svg width="19" height="19" viewBox="0 0 19 19" fill="none" xmlns="http://www.w3.org/2000/svg">
<path d="M14.459 8.7085H6.54232C5.66787 8.7085 4.95898 9.41738 4.95898 10.2918V15.0418C4.95898 15.9163 5.66787 16.6252 6.54232 16.6252H14.459C15.3334 16.6252 16.0423 15.9163 16.0423 15.0418V10.2918C16.0423 9.41738 15.3334 8.7085 14.459 8.7085Z" stroke="#F03A35" stroke-width="2" stroke-linecap="round" stroke-linejoin="round"/>
<path d="M10.5007 13.4583C10.9379 13.4583 11.2923 13.1039 11.2923 12.6667C11.2923 12.2294 10.9379 11.875 10.5007 11.875C10.0634 11.875 9.70898 12.2294 9.70898 12.6667C9.70898 13.1039 10.0634 13.4583 10.5007 13.4583Z" stroke="#F03A35" stroke-width="2" stroke-linecap="round" stroke-linejoin="round"/>
<path d="M7.33398 8.70833V5.54167C7.33398 4.70181 7.66761 3.89636 8.26148 3.30249C8.85534 2.70863 9.6608 2.375 10.5007 2.375C11.3405 2.375 12.146 2.70863 12.7398 3.30249" stroke="#F03A35" stroke-width="2" stroke-linecap="round" stroke-linejoin="round"/>
</svg>
